<svg
  xmlns="http://www.w3.org/2000/svg"
  width="28"
  height="26"
  viewBox="0 0 28 26"
  fill="none"
>
  <path
    d="M26.7399 6.31851L20.9399 0.732553C20.6988 0.500311 20.4126 0.316082 20.0975 0.190388C19.7825 0.0646945 19.4448 0 19.1038 0C18.7627 0 18.4251 0.0646945 18.11 0.190388C17.795 0.316082 17.5087 0.500311 17.2676 0.732553L1.2607 16.1468C1.01874 16.3782 0.826901 16.6536 0.696322 16.957C0.565742 17.2604 0.499016 17.5857 0.500011 17.9142V23.5001C0.500011 24.1631 0.773539 24.799 1.26042 25.2678C1.74731 25.7366 2.40766 26 3.09622 26H8.89744C9.2385 26.0009 9.57635 25.9366 9.89143 25.8109C10.2065 25.6851 10.4925 25.5005 10.733 25.2675L26.7399 9.85333C27.2266 9.38453 27.5 8.7488 27.5 8.08592C27.5 7.42305 27.2266 6.78731 26.7399 6.31851ZM8.93768 20.0003L18.1542 11.1258L19.5821 12.5007L10.3656 21.3752L8.93768 20.0003ZM6.73091 17.8754L5.30299 16.5005L14.5195 7.62595L15.9474 9.00087L6.73091 17.8754ZM3.61546 19.1253L5.62882 21.064L7.63958 23.0001H3.61546V19.1253ZM21.7889 10.3758L16.7263 5.50106L19.107 3.20867L24.1696 8.08342L21.7889 10.3758Z"
    fill="#FEFEFE"
  />
</svg>
