<svg
  xmlns="http://www.w3.org/2000/svg"
  width="24"
  height="19"
  viewBox="0 0 24 19"
  fill="none"
>
  <path
    d="M10.2982 1.68207L10.6482 1.32499L10.2982 1.68207C11.0689 2.43749 11.5 3.4599 11.5 4.52381C11.5 5.58772 11.0689 6.61013 10.2982 7.36555C9.52714 8.1213 8.47928 8.54762 7.38462 8.54762C6.28995 8.54762 5.24209 8.1213 4.47104 7.36555C3.70033 6.61013 3.26923 5.58772 3.26923 4.52381C3.26923 3.4599 3.70033 2.43749 4.47104 1.68207C5.24209 0.92632 6.28995 0.5 7.38462 0.5C8.47928 0.5 9.52714 0.92632 10.2982 1.68207ZM14.2547 13.9596L14.2543 13.9625C14.1595 14.7529 13.8593 15.5072 13.3815 16.153L13.3813 16.1532C12.4849 17.3658 10.7303 18.5 7.38462 18.5C4.04166 18.5 2.28641 17.3664 1.38598 16.153C0.909204 15.5077 0.609724 14.7542 0.51517 13.9647C0.507785 13.8981 0.502725 13.8313 0.5 13.7643V13.5714C0.5 12.9874 0.736593 12.4253 1.16108 12.0092C1.58591 11.5928 2.1642 11.3571 2.76923 11.3571H12C12.605 11.3571 13.1833 11.5928 13.6081 12.0092C14.0326 12.4253 14.2692 12.9874 14.2692 13.5714V13.7679C14.2675 13.832 14.2627 13.8959 14.2547 13.9596ZM1.34615 13.747V13.7677L1.34788 13.7885L1.35526 13.8771L1.35617 13.888L1.35756 13.8989C1.43994 14.5444 1.68717 15.1582 2.07543 15.6835L2.07608 15.6844C2.79068 16.647 4.26561 17.6905 7.38462 17.6905C10.5036 17.6905 11.9786 16.647 12.6932 15.6844L12.6938 15.6835C13.0821 15.1582 13.3293 14.5444 13.4117 13.8989L13.4117 13.8989L13.4127 13.8903C13.417 13.8509 13.4203 13.8114 13.4224 13.7718L13.4231 13.7585V13.7451V13.5714C13.4231 13.1956 13.2707 12.8372 13.0027 12.5746C12.7351 12.3123 12.3742 12.1667 12 12.1667H2.76923C2.39501 12.1667 2.03414 12.3123 1.76652 12.5746C1.49857 12.8372 1.34615 13.1956 1.34615 13.5714V13.7343V13.747ZM22.6462 13.2252L22.6479 13.212L22.6488 13.1988L22.6525 13.1482L22.6541 13.1259L22.6538 13.1036C22.6496 12.8505 22.5441 12.6112 22.3632 12.4367C22.1826 12.2626 21.9415 12.1667 21.6923 12.1667C21.6923 12.1667 21.6923 12.1667 21.6922 12.1667H16.9124C16.8298 11.8878 16.7227 11.617 16.5927 11.3571H21.6923C22.6995 11.3571 23.5 12.156 23.5 13.119V13.1409C23.4981 13.1905 23.4943 13.2399 23.4886 13.2892L23.4885 13.2898C23.4202 13.8818 23.1995 14.448 22.846 14.935C22.1788 15.8506 20.8838 16.6905 18.4615 16.6905C17.6901 16.6905 17.0331 16.6043 16.4771 16.4595C16.5897 16.2114 16.6885 15.9573 16.7729 15.6984C17.2418 15.8132 17.7986 15.881 18.4615 15.881C20.6549 15.881 21.6675 15.1373 22.1521 14.4699C22.4193 14.1024 22.5894 13.6747 22.6462 13.2252ZM16.2505 16.9164C16.0812 16.8693 15.9198 16.817 15.7662 16.7598C15.848 16.6129 15.9243 16.4632 15.9951 16.3111L16.2505 16.9164ZM4.36562 3.29046C4.2005 3.68118 4.11538 4.1003 4.11538 4.52381C4.11538 5.37956 4.46231 6.19819 5.07648 6.80018C5.69031 7.40183 6.52076 7.7381 7.38462 7.7381C8.24847 7.7381 9.07892 7.40183 9.69275 6.80018C10.3069 6.19819 10.6538 5.37956 10.6538 4.52381C10.6538 4.1003 10.5687 3.68118 10.4036 3.29046C10.2385 2.89978 9.99679 2.54545 9.69275 2.24744C9.38873 1.94946 9.02835 1.7136 8.63244 1.55286C8.23654 1.39213 7.81256 1.30952 7.38462 1.30952C6.95667 1.30952 6.53269 1.39213 6.13679 1.55286C5.74088 1.7136 5.3805 1.94946 5.07648 2.24744C4.77244 2.54545 4.53072 2.89978 4.36562 3.29046ZM16.8061 3.79197C16.3651 4.22428 16.1154 4.81278 16.1154 5.42857C16.1154 6.04437 16.3651 6.63286 16.8061 7.06518C17.2468 7.49715 17.8425 7.7381 18.4615 7.7381C19.0806 7.7381 19.6762 7.49715 20.117 7.06518C20.558 6.63286 20.8077 6.04436 20.8077 5.42857C20.8077 4.81278 20.558 4.22428 20.117 3.79197C19.6762 3.35999 19.0806 3.11905 18.4615 3.11905C17.8425 3.11905 17.2468 3.35999 16.8061 3.79197ZM16.2007 3.2266C16.7986 2.64052 17.6117 2.30952 18.4615 2.30952C19.3114 2.30952 20.1245 2.64052 20.7224 3.2266C21.32 3.81234 21.6538 4.60462 21.6538 5.42857C21.6538 6.25252 21.32 7.0448 20.7224 7.63055C20.1245 8.21662 19.3114 8.54762 18.4615 8.54762C17.6117 8.54762 16.7986 8.21662 16.2007 7.63055C15.6031 7.0448 15.2692 6.25252 15.2692 5.42857C15.2692 4.60462 15.6031 3.81234 16.2007 3.2266Z"
    fill="#026C80"
    stroke="#FEFEFE"
  />
</svg>
