<svg
  xmlns="http://www.w3.org/2000/svg"
  width="26"
  height="26"
  viewBox="0 0 26 26"
  fill="none"
>
  <path
    d="M6.53672 1H1.92279C1.41315 1 1 1.41315 1 1.92279V24.0697C1 24.5793 1.41315 24.9925 1.92279 24.9925H6.53672C7.04637 24.9925 7.45951 24.5793 7.45951 24.0697V1.92279C7.45951 1.41315 7.04637 1 6.53672 1Z"
    stroke="white"
    stroke-width="1.5"
    stroke-linecap="round"
    stroke-linejoin="round"
  />
  <path
    d="M12.9962 4.69115H8.38229C7.87265 4.69115 7.4595 5.10429 7.4595 5.61393V24.0697C7.4595 24.5793 7.87265 24.9925 8.38229 24.9925H12.9962C13.5059 24.9925 13.919 24.5793 13.919 24.0697V5.61393C13.919 5.10429 13.5059 4.69115 12.9962 4.69115Z"
    stroke="white"
    stroke-width="1.5"
    stroke-linecap="round"
    stroke-linejoin="round"
  />
  <path
    d="M19.1727 4.1859L15.592 5.08199C15.0976 5.20572 14.7971 5.7068 14.9208 6.2012L19.4013 24.1048C19.525 24.5992 20.0261 24.8997 20.5205 24.776L24.1012 23.8799C24.5956 23.7562 24.8961 23.2551 24.7724 22.7607L20.2919 4.85705C20.1682 4.36266 19.6671 4.06217 19.1727 4.1859Z"
    stroke="white"
    stroke-width="1.5"
    stroke-linecap="round"
    stroke-linejoin="round"
  />
  <path
    d="M1 18.533H7.45951M7.45951 16.6874H13.919M18.533 20.3785L23.8482 19.0497"
    stroke="white"
    stroke-width="1.5"
    stroke-linecap="round"
    stroke-linejoin="round"
  />
</svg>
