<svg xmlns="http://www.w3.org/2000/svg" width="22" height="24" viewBox="0 0 22 24" fill="none">
  <path d="M10.8 13.2C13.6752 13.2 16.29 14.0328 18.2136 15.2052C19.1736 15.7932 19.9944 16.4832 20.5872 17.2332C21.1704 17.9724 21.6 18.8556 21.6 19.8C21.6 20.814 21.1068 21.6132 20.3964 22.1832C19.7244 22.7232 18.8376 23.0808 17.8956 23.3304C16.002 23.8308 13.4748 24 10.8 24C8.1252 24 5.598 23.832 3.7044 23.3304C2.7624 23.0808 1.8756 22.7232 1.2036 22.1832C0.492 21.612 0 20.814 0 19.8C0 18.8556 0.4296 17.9724 1.0128 17.2332C1.6056 16.4832 2.4252 15.7932 3.3864 15.2052C5.31 14.0328 7.926 13.2 10.8 13.2ZM10.8 0C12.3913 0 13.9174 0.632141 15.0426 1.75736C16.1679 2.88258 16.8 4.4087 16.8 6C16.8 7.5913 16.1679 9.11742 15.0426 10.2426C13.9174 11.3679 12.3913 12 10.8 12C9.2087 12 7.68258 11.3679 6.55736 10.2426C5.43214 9.11742 4.8 7.5913 4.8 6C4.8 4.4087 5.43214 2.88258 6.55736 1.75736C7.68258 0.632141 9.2087 0 10.8 0Z" fill="#FEFEFE"/>
</svg>